<svg width="42" height="50" viewBox="0 0 42 50" fill="none" xmlns="http://www.w3.org/2000/svg">
<path d="M21.0384 10.9706C13.9077 10.9706 8.08192 16.6526 8.08192 23.6074C8.08192 27.2438 9.71313 30.744 12.4629 33.1077C14.5135 35.1077 14.3271 39.3806 14.2805 39.4261C14.2805 39.6533 14.3271 39.8352 14.5135 40.017C14.6534 40.1534 14.8864 40.2443 15.0728 40.2443H26.9573C27.1904 40.2443 27.3768 40.1534 27.5166 40.017C27.6564 39.8806 27.7496 39.6533 27.7496 39.4261C27.7496 39.3806 27.5166 35.1077 29.5673 33.1077C29.6139 33.0622 29.6605 33.0168 29.7071 32.9713C32.4102 30.5621 33.9948 27.1529 33.9948 23.6074C33.9948 16.6526 28.1691 10.9706 21.0384 10.9706ZM28.4953 31.9258C28.4487 31.9713 28.3555 32.0622 28.3555 32.1076C26.5379 34.0168 26.2116 37.1533 26.165 38.6533H15.8651C15.8185 37.1533 15.4923 33.8804 13.5348 31.9258C11.0647 29.8348 9.61992 26.7893 9.61992 23.5619C9.61992 17.4253 14.7 12.4706 20.9918 12.4706C27.2836 12.4706 32.3636 17.4253 32.3636 23.5619C32.3636 26.7893 30.9654 29.8348 28.4953 31.9258Z" fill="white"/>
<path d="M20.9917 14.1979C20.5722 14.1979 20.1994 14.5615 20.1994 14.9706C20.1994 15.3797 20.5722 15.7434 20.9917 15.7434C25.6989 15.7434 29.474 19.4708 29.474 24.0164C29.474 24.4255 29.8468 24.7892 30.2663 24.7892C30.6857 24.7892 31.0586 24.4255 31.0586 24.0164C31.1052 18.6071 26.5844 14.1979 20.9917 14.1979Z" fill="white"/>
<path d="M26.165 41.1079H15.8185C14.7466 41.1079 13.861 41.9716 13.861 43.0171C13.861 44.0625 14.7466 44.9262 15.8185 44.9262H26.1184C27.2369 44.8808 28.1225 44.0625 28.1225 43.0171C28.1225 41.9716 27.2369 41.1079 26.165 41.1079ZM26.165 43.3353H15.8185C15.6321 43.3353 15.4456 43.1989 15.4456 42.9716C15.4456 42.7443 15.5855 42.608 15.8185 42.608H26.1184C26.3048 42.608 26.4913 42.7443 26.4913 42.9716C26.4913 43.1989 26.3514 43.3353 26.165 43.3353Z" fill="white"/>
<path d="M24.627 45.6989H17.3565C16.2846 45.6989 15.399 46.5626 15.399 47.6081C15.399 48.6536 16.2846 49.5173 17.3565 49.5173H24.627C25.699 49.5173 26.5845 48.6536 26.5845 47.6081C26.5845 46.5171 25.699 45.6989 24.627 45.6989ZM24.627 47.9263H17.3565C17.1701 47.9263 16.9837 47.7899 16.9837 47.5626C16.9837 47.3354 17.1235 47.199 17.3565 47.199H24.627C24.8134 47.199 24.9999 47.3354 24.9999 47.5626C24.9999 47.7899 24.8134 47.9263 24.627 47.9263Z" fill="white"/>
<path d="M20.9917 7.19775C21.4578 7.19775 21.784 6.83411 21.784 6.425V1.15209C21.784 0.742983 21.4111 0.379333 20.9917 0.379333C20.5722 0.379333 20.1994 0.742983 20.1994 1.15209V6.425C20.1994 6.83411 20.5722 7.19775 20.9917 7.19775Z" fill="white"/>
<path d="M34.1812 4.28851C33.8084 4.01577 33.3423 4.15214 33.1093 4.47033L30.1265 8.83409C29.8469 9.19774 29.9401 9.69775 30.3129 9.92503C30.4527 10.0159 30.5926 10.0614 30.7324 10.0614C31.012 10.0614 31.2451 9.92503 31.3849 9.69775L34.3676 5.33399C34.6473 5.0158 34.5541 4.51579 34.1812 4.28851Z" fill="white"/>
<path d="M11.5307 9.87964C11.6705 9.87964 11.8103 9.83418 11.9502 9.74327C12.323 9.51599 12.4162 9.01598 12.1832 8.65233L9.29362 4.2431C9.06059 3.87945 8.54793 3.78854 8.17508 4.01582C7.80223 4.2431 7.70902 4.74311 7.94205 5.10676L10.8316 9.51599C11.018 9.78873 11.2511 9.87964 11.5307 9.87964Z" fill="white"/>
<path d="M5.89139 14.698L1.18419 12.1979C0.811347 12.0161 0.298682 12.1525 0.112258 12.5161C-0.120771 12.8798 0.0190463 13.3798 0.4385 13.5616L5.1457 16.0617C5.28552 16.1071 5.37873 16.1526 5.51855 16.1526C5.79818 16.1526 6.07782 16.0162 6.21764 15.7435C6.40406 15.3798 6.26424 14.8798 5.89139 14.698Z" fill="white"/>
<path d="M41.9178 12.5161C41.7314 12.1525 41.2187 12.0161 40.8459 12.1979L36.0921 14.698C35.7192 14.8798 35.5794 15.3798 35.7658 15.7435C35.9056 16.0162 36.1853 16.1526 36.4649 16.1526C36.6047 16.1526 36.7445 16.1071 36.8377 16.0617L41.5915 13.5616C41.9644 13.3798 42.1042 12.8798 41.9178 12.5161Z" fill="white"/>
</svg>
